<svg xmlns="http://www.w3.org/2000/svg" xmlns:xlink="http://www.w3.org/1999/xlink" width="500" zoomAndPan="magnify" viewBox="0 0 375 374.999991" height="500" preserveAspectRatio="xMidYMid meet" version="1.0"><defs><g/></defs><g fill="#ff00ff" fill-opacity="1"><g transform="translate(49.185465, 268.766945)"><g><path d="M 33.765625 0 L 33.765625 -182.890625 L 46.046875 -182.890625 L 46.046875 0 Z M 33.765625 0 "/></g></g></g><g fill="#ff00ff" fill-opacity="1"><g transform="translate(199.590595, 268.766945)"><g><path d="M 33.765625 0 L 33.765625 -182.890625 L 46.046875 -182.890625 L 46.046875 -11.25 L 130.203125 -11.25 L 130.203125 0 Z M 33.765625 0 "/></g></g></g><g fill="#00ffff" fill-opacity="1"><g transform="translate(39.593299, 268.766945)"><g><path d="M 33.765625 0 L 33.765625 -182.890625 L 46.046875 -182.890625 L 46.046875 0 Z M 33.765625 0 "/></g></g></g><g fill="#00ffff" fill-opacity="1"><g transform="translate(189.99843, 268.766945)"><g><path d="M 33.765625 0 L 33.765625 -182.890625 L 46.046875 -182.890625 L 46.046875 -11.25 L 130.203125 -11.25 L 130.203125 0 Z M 33.765625 0 "/></g></g></g><g fill="#ffffff" fill-opacity="1"><g transform="translate(44.389382, 268.766945)"><g><path d="M 33.765625 0 L 33.765625 -182.890625 L 46.046875 -182.890625 L 46.046875 0 Z M 33.765625 0 "/></g></g></g><g fill="#ffffff" fill-opacity="1"><g transform="translate(194.794513, 268.766945)"><g><path d="M 33.765625 0 L 33.765625 -182.890625 L 46.046875 -182.890625 L 46.046875 -11.25 L 130.203125 -11.25 L 130.203125 0 Z M 33.765625 0 "/></g></g></g></svg>